<svg id="checkbox-selected" data-name="checkbox-selected" xmlns="http://www.w3.org/2000/svg" viewBox="0 0 24 24"><defs><style>.checkbox-selected-cls{fill:#fff;}</style></defs><path d="M22.00018,6.97266a4.90675,4.90675,0,0,0-.05853-.57868,4.97976,4.97976,0,0,0-4.88312-4.4154c-.01989-.00025-.03839-.00592-.05835-.00592H7a5,5,0,0,0-5,5v10a5,5,0,0,0,5,5H17.00018c.02,0,.03846-.00568.05835-.00592a4.97977,4.97977,0,0,0,4.88312-4.41541,4.90658,4.90658,0,0,0,.05853-.57867Z"/><path class="checkbox-selected-cls" d="M6.17578,12.39844a.6.6,0,0,1,0-.84863l.84863-.84815a.6.6,0,0,1,.84864,0L10.5,13.32861l5.627-5.62695a.6.6,0,0,1,.84864,0l.84863.84815a.6.6,0,0,1,0,.84863l-6.90039,6.8999a.59883.59883,0,0,1-.84766,0Z"/></svg>
