<svg id="checkbox-blank" data-name="checkbox-blank" xmlns="http://www.w3.org/2000/svg" viewBox="0 0 24 24"><defs><style>.checkbox-blank-cls{fill:none;}</style></defs><g id="Rectangle_Checkbos" data-name="Rectangle Checkbos"><rect class="checkbox-blank-cls" x="1.9999" y="1.97268" width="20" height="20" rx="5"/><path d="M17.0001,21.97266h-10a5.00589,5.00589,0,0,1-5-5v-10a5.00588,5.00588,0,0,1,5-5h10a5.00589,5.00589,0,0,1,5,5v10A5.00589,5.00589,0,0,1,17.0001,21.97266Zm-10-19a4.00426,4.00426,0,0,0-4,4v10a4.00427,4.00427,0,0,0,4,4h10a4.00428,4.00428,0,0,0,4-4v-10a4.00427,4.00427,0,0,0-4-4Z"/></g></svg>
